<svg width="1958" height="491" viewBox="0 0 1958 491" fill="none" xmlns="http://www.w3.org/2000/svg">
<path d="M113.213 130.473L144.146 161.869L65.0414 242.157L147.342 325.688L113.079 359.484L0.332031 245.046L113.213 130.473ZM309.16 361.419L338.479 391.176L241.769 490.1L133.705 380.419L167.485 346.133L245.852 425.676L309.16 361.419ZM361.75 308.041L392.03 338.775L485.397 245.978L241.761 0L132.976 110.413L163.909 141.81L244.018 60.4987L424.829 244.018L361.75 308.041Z" fill="#0D6992"/>
<path d="M582.864 359.626L552.236 328.23L630.563 247.942L549.071 164.411L582.996 130.617L694.639 245.053L582.864 359.626ZM388.838 128.681L359.807 98.9238L455.569 0L562.572 109.682L529.125 143.966L451.526 64.4252L388.838 128.681ZM336.763 182.059L306.782 151.326L214.33 244.122L455.577 490.1L563.294 379.685L532.666 348.289L453.341 429.6L274.304 246.083L336.763 182.059Z" fill="#289842"/>
<path d="M823.205 220H771.642V74.5455H823.631C838.261 74.5455 850.856 77.4574 861.415 83.2812C871.973 89.0578 880.094 97.3674 885.776 108.21C891.505 119.053 894.369 132.027 894.369 147.131C894.369 162.282 891.505 175.303 885.776 186.193C880.094 197.083 871.926 205.44 861.273 211.264C850.667 217.088 837.977 220 823.205 220ZM802.395 193.651H821.926C831.017 193.651 838.664 192.041 844.866 188.821C851.116 185.554 855.804 180.511 858.929 173.693C862.101 166.828 863.688 157.973 863.688 147.131C863.688 136.383 862.101 127.599 858.929 120.781C855.804 113.963 851.14 108.944 844.938 105.724C838.735 102.505 831.088 100.895 821.997 100.895H802.395V193.651ZM934.018 220H901.063L951.276 74.5455H990.907L1041.05 220H1008.09L971.66 107.784H970.523L934.018 220ZM931.958 162.827H1009.8V186.832H931.958V162.827ZM1066.67 74.5455L1101.83 185.057H1103.18L1138.4 74.5455H1172.49L1122.35 220H1082.72L1032.51 74.5455H1066.67ZM1190 220V74.5455H1247.39C1258.37 74.5455 1267.75 76.5104 1275.51 80.4403C1283.33 84.3229 1289.27 89.839 1293.34 96.9886C1297.46 104.091 1299.52 112.448 1299.52 122.06C1299.52 131.719 1297.44 140.028 1293.27 146.989C1289.1 153.902 1283.06 159.205 1275.16 162.898C1267.3 166.591 1257.78 168.438 1246.61 168.438H1208.18V143.722H1241.63C1247.51 143.722 1252.38 142.917 1256.27 141.307C1260.15 139.697 1263.04 137.282 1264.93 134.062C1266.87 130.843 1267.84 126.842 1267.84 122.06C1267.84 117.23 1266.87 113.158 1264.93 109.844C1263.04 106.529 1260.12 104.02 1256.19 102.315C1252.31 100.563 1247.41 99.6875 1241.49 99.6875H1220.75V220H1190ZM1268.55 153.807L1304.7 220H1270.75L1235.38 153.807H1268.55ZM1367.54 220V74.5455H1425.78C1436.48 74.5455 1445.41 76.1316 1452.55 79.304C1459.7 82.4763 1465.08 86.8797 1468.68 92.5142C1472.28 98.1013 1474.07 104.541 1474.07 111.832C1474.07 117.514 1472.94 122.509 1470.67 126.818C1468.39 131.08 1465.27 134.583 1461.29 137.33C1457.36 140.028 1452.86 141.946 1447.8 143.082V144.503C1453.34 144.74 1458.52 146.302 1463.35 149.19C1468.23 152.079 1472.18 156.127 1475.21 161.335C1478.24 166.496 1479.76 172.652 1479.76 179.801C1479.76 187.519 1477.84 194.408 1474 200.469C1470.22 206.482 1464.6 211.241 1457.17 214.744C1449.74 218.248 1440.58 220 1429.69 220H1367.54ZM1398.29 194.858H1423.36C1431.93 194.858 1438.18 193.224 1442.11 189.957C1446.04 186.643 1448.01 182.24 1448.01 176.747C1448.01 172.723 1447.04 169.171 1445.1 166.094C1443.16 163.016 1440.39 160.601 1436.79 158.849C1433.24 157.098 1429 156.222 1424.07 156.222H1398.29V194.858ZM1398.29 135.412H1421.09C1425.31 135.412 1429.05 134.678 1432.31 133.21C1435.63 131.695 1438.23 129.564 1440.13 126.818C1442.07 124.072 1443.04 120.781 1443.04 116.946C1443.04 111.69 1441.17 107.453 1437.43 104.233C1433.73 101.013 1428.48 99.4034 1421.66 99.4034H1398.29V135.412ZM1524.84 220H1491.88L1542.1 74.5455H1581.73L1631.87 220H1598.91L1562.48 107.784H1561.34L1524.84 220ZM1522.78 162.827H1600.62V186.832H1522.78V162.827ZM1771.04 74.5455V220H1744.48L1681.19 128.452H1680.13V220H1649.38V74.5455H1676.37L1739.15 166.023H1740.43V74.5455H1771.04ZM1796.45 220V74.5455H1827.2V138.679H1829.12L1881.46 74.5455H1918.32L1864.34 139.673L1918.96 220H1882.17L1842.33 160.199L1827.2 178.665V220H1796.45Z" fill="black"/>
<path d="M770.378 422V291.091H822.026C831.955 291.091 840.413 292.987 847.402 296.78C854.391 300.53 859.717 305.75 863.382 312.44C867.089 319.088 868.943 326.759 868.943 335.452C868.943 344.145 867.068 351.815 863.318 358.463C859.568 365.111 854.135 370.288 847.018 373.996C839.945 377.703 831.379 379.557 821.322 379.557H788.403V357.376H816.848C822.175 357.376 826.564 356.46 830.016 354.628C833.51 352.753 836.109 350.175 837.814 346.893C839.561 343.57 840.435 339.756 840.435 335.452C840.435 331.105 839.561 327.312 837.814 324.074C836.109 320.793 833.51 318.257 830.016 316.467C826.521 314.635 822.089 313.719 816.72 313.719H798.055V422H770.378ZM911.77 423.854C905.506 423.854 899.923 422.767 895.023 420.594C890.122 418.378 886.244 415.118 883.389 410.814C880.577 406.467 879.17 401.055 879.17 394.578C879.17 389.124 880.172 384.543 882.175 380.835C884.178 377.128 886.905 374.145 890.357 371.886C893.808 369.628 897.729 367.923 902.118 366.773C906.55 365.622 911.195 364.812 916.053 364.344C921.763 363.747 926.365 363.193 929.859 362.682C933.354 362.128 935.889 361.318 937.466 360.253C939.043 359.187 939.831 357.611 939.831 355.523V355.139C939.831 351.091 938.553 347.959 935.996 345.743C933.482 343.527 929.902 342.419 925.257 342.419C920.357 342.419 916.457 343.506 913.56 345.679C910.662 347.81 908.744 350.494 907.807 353.733L882.622 351.688C883.901 345.722 886.415 340.565 890.165 336.219C893.915 331.83 898.751 328.463 904.675 326.119C910.641 323.733 917.544 322.54 925.385 322.54C930.839 322.54 936.06 323.179 941.045 324.457C946.074 325.736 950.527 327.717 954.405 330.402C958.325 333.087 961.415 336.538 963.673 340.757C965.932 344.933 967.061 349.94 967.061 355.778V422H941.237V408.385H940.47C938.893 411.453 936.784 414.159 934.142 416.503C931.5 418.804 928.325 420.615 924.618 421.936C920.911 423.214 916.628 423.854 911.77 423.854ZM919.568 405.061C923.574 405.061 927.111 404.273 930.179 402.696C933.247 401.077 935.655 398.903 937.402 396.176C939.149 393.449 940.023 390.359 940.023 386.908V376.489C939.17 377.043 937.999 377.554 936.507 378.023C935.058 378.449 933.418 378.854 931.585 379.237C929.753 379.578 927.92 379.898 926.088 380.196C924.256 380.452 922.594 380.686 921.102 380.899C917.906 381.368 915.115 382.114 912.729 383.136C910.342 384.159 908.489 385.544 907.168 387.291C905.847 388.996 905.186 391.126 905.186 393.683C905.186 397.391 906.528 400.224 909.213 402.185C911.94 404.102 915.392 405.061 919.568 405.061ZM1001.48 458.818C998.031 458.818 994.792 458.541 991.766 457.987C988.783 457.476 986.312 456.815 984.352 456.006L990.488 435.679C993.684 436.659 996.56 437.192 999.117 437.277C1001.72 437.362 1003.95 436.766 1005.83 435.487C1007.75 434.209 1009.3 432.036 1010.5 428.967L1012.09 424.812L976.873 323.818H1005.51L1025.84 395.92H1026.86L1047.38 323.818H1076.21L1038.04 432.611C1036.21 437.895 1033.72 442.497 1030.57 446.418C1027.46 450.381 1023.51 453.428 1018.74 455.558C1013.97 457.732 1008.22 458.818 1001.48 458.818ZM1090.65 422V291.091H1142.3C1152.23 291.091 1160.69 292.987 1167.68 296.78C1174.66 300.53 1179.99 305.75 1183.66 312.44C1187.36 319.088 1189.22 326.759 1189.22 335.452C1189.22 344.145 1187.34 351.815 1183.59 358.463C1179.84 365.111 1174.41 370.288 1167.29 373.996C1160.22 377.703 1151.65 379.557 1141.6 379.557H1108.68V357.376H1137.12C1142.45 357.376 1146.84 356.46 1150.29 354.628C1153.78 352.753 1156.38 350.175 1158.09 346.893C1159.83 343.57 1160.71 339.756 1160.71 335.452C1160.71 331.105 1159.83 327.312 1158.09 324.074C1156.38 320.793 1153.78 318.257 1150.29 316.467C1146.79 314.635 1142.36 313.719 1136.99 313.719H1118.33V422H1090.65ZM1233.91 291.091V422H1206.68V291.091H1233.91ZM1283.72 423.854C1277.46 423.854 1271.88 422.767 1266.98 420.594C1262.08 418.378 1258.2 415.118 1255.34 410.814C1252.53 406.467 1251.12 401.055 1251.12 394.578C1251.12 389.124 1252.13 384.543 1254.13 380.835C1256.13 377.128 1258.86 374.145 1262.31 371.886C1265.76 369.628 1269.68 367.923 1274.07 366.773C1278.5 365.622 1283.15 364.812 1288.01 364.344C1293.72 363.747 1298.32 363.193 1301.81 362.682C1305.31 362.128 1307.84 361.318 1309.42 360.253C1311 359.187 1311.78 357.611 1311.78 355.523V355.139C1311.78 351.091 1310.51 347.959 1307.95 345.743C1305.43 343.527 1301.86 342.419 1297.21 342.419C1292.31 342.419 1288.41 343.506 1285.51 345.679C1282.62 347.81 1280.7 350.494 1279.76 353.733L1254.58 351.688C1255.85 345.722 1258.37 340.565 1262.12 336.219C1265.87 331.83 1270.7 328.463 1276.63 326.119C1282.59 323.733 1289.5 322.54 1297.34 322.54C1302.79 322.54 1308.01 323.179 1313 324.457C1318.03 325.736 1322.48 327.717 1326.36 330.402C1330.28 333.087 1333.37 336.538 1335.63 340.757C1337.88 344.933 1339.01 349.94 1339.01 355.778V422H1313.19V408.385H1312.42C1310.85 411.453 1308.74 414.159 1306.1 416.503C1303.45 418.804 1300.28 420.615 1296.57 421.936C1292.86 423.214 1288.58 423.854 1283.72 423.854ZM1291.52 405.061C1295.53 405.061 1299.06 404.273 1302.13 402.696C1305.2 401.077 1307.61 398.903 1309.36 396.176C1311.1 393.449 1311.98 390.359 1311.98 386.908V376.489C1311.12 377.043 1309.95 377.554 1308.46 378.023C1307.01 378.449 1305.37 378.854 1303.54 379.237C1301.71 379.578 1299.87 379.898 1298.04 380.196C1296.21 380.452 1294.55 380.686 1293.06 380.899C1289.86 381.368 1287.07 382.114 1284.68 383.136C1282.3 384.159 1280.44 385.544 1279.12 387.291C1277.8 388.996 1277.14 391.126 1277.14 393.683C1277.14 397.391 1278.48 400.224 1281.17 402.185C1283.89 404.102 1287.35 405.061 1291.52 405.061ZM1387.37 365.239V422H1360.14V323.818H1386.09V341.141H1387.24C1389.42 335.43 1393.06 330.913 1398.17 327.589C1403.29 324.223 1409.49 322.54 1416.77 322.54C1423.59 322.54 1429.54 324.031 1434.61 327.014C1439.68 329.997 1443.62 334.259 1446.43 339.798C1449.25 345.295 1450.65 351.858 1450.65 359.486V422H1423.42V364.344C1423.46 358.335 1421.93 353.648 1418.82 350.281C1415.71 346.872 1411.43 345.168 1405.97 345.168C1402.31 345.168 1399.07 345.956 1396.25 347.533C1393.49 349.109 1391.31 351.411 1389.74 354.436C1388.2 357.419 1387.41 361.02 1387.37 365.239Z" fill="black"/>
</svg>
